<svg width="50" height="50" viewBox="0 0 50 50" fill="none" xmlns="http://www.w3.org/2000/svg">
<path d="M49.2062 22.6015L26.0811 0.434599C25.4772 -0.144866 24.5228 -0.144866 23.9189 0.434599L0.77095 22.6244C0.281143 23.1142 0 23.789 0 24.4788C0 25.9143 1.16882 27.0831 2.60429 27.0831H6.25V46.8749C6.25 48.6 7.64999 50 9.375 50H18.2293C19.0918 50 19.7918 49.3 19.7918 48.4375V34.8958C19.7918 34.61 20.0249 34.3747 20.3125 34.3747H29.6875C29.9728 34.3747 30.2082 34.61 30.2082 34.8958V48.4375C30.2082 49.3 30.9082 50 31.7707 50H40.625C42.35 50 43.75 48.6 43.75 46.8749V27.0831H47.3957C48.8312 27.0831 50 25.9143 50 24.4788C50 23.789 49.7189 23.1142 49.2062 22.6015Z" fill="#333333"/>
</svg>
