<svg xmlns="http://www.w3.org/2000/svg" width="50" height="50" fill="none"><g clip-path="url(#A)" fill="#333"><path d="M45.313 3.438h-18.75V1.563C26.563.677 25.885 0 25 0s-1.562.677-1.562 1.563v1.875H4.688c-.885 0-1.562.677-1.562 1.563V31.2h43.75V5a1.53 1.53 0 0 0-1.562-1.562zm3.125 30.364H1.563C.73 33.802 0 34.53 0 35.365c0 .885.677 1.563 1.563 1.563h20.26l-9.22 9.74c-.573.625-.573 1.615.052 2.188s1.614.573 2.188-.052l8.594-9.062v8.698c0 .885.677 1.563 1.563 1.563s1.563-.677 1.563-1.562v-8.7l8.594 9.063a1.51 1.51 0 0 0 2.188.052 1.51 1.51 0 0 0 .052-2.187l-9.22-9.74h20.26c.885 0 1.563-.677 1.563-1.562a1.53 1.53 0 0 0-1.562-1.562z"/></g><defs><clipPath id="A"><path fill="#fff" d="M0 0h50v50H0z"/></clipPath></defs></svg>