<svg xmlns="http://www.w3.org/2000/svg" width="50" height="50" fill="none"><g clip-path="url(#A)" fill="#333"><path d="M24.644 24.085c3.3 0 6.174-1.187 8.515-3.528s3.528-5.205 3.528-8.515a11.65 11.65 0 0 0-3.528-8.515C30.817 1.187 27.952 0 24.644 0S18.47 1.187 16.13 3.528s-3.53 5.206-3.53 8.514 1.187 6.174 3.53 8.515 5.206 3.528 8.514 3.528h0zm21.072 14.362c-.067-.974-.204-2.037-.405-3.16a24.85 24.85 0 0 0-.777-3.176 15.69 15.69 0 0 0-1.306-2.963c-.564-.992-1.226-1.855-1.97-2.566-.777-.743-1.728-1.34-2.83-1.777s-2.3-.654-3.6-.654c-.5 0-1.004.2-1.957.83l-2.04 1.315c-.655.417-1.542.808-2.638 1.162-1.07.346-2.155.52-3.227.52s-2.157-.175-3.227-.52c-1.095-.354-1.982-.745-2.636-1.162l-2.04-1.315c-.952-.62-1.446-.83-1.957-.83-1.3 0-2.515.22-3.6.654s-2.05 1.033-2.83 1.777c-.743.7-1.405 1.574-1.968 2.566a15.72 15.72 0 0 0-1.306 2.963 25.02 25.02 0 0 0-.777 3.176c-.2 1.12-.338 2.184-.405 3.16L4.1 41.4c0 2.6.83 4.723 2.466 6.28C8.183 49.22 10.32 50 12.922 50h24.075c2.6 0 4.737-.78 6.354-2.318 1.636-1.557 2.466-3.67 2.466-6.282l-.1-2.953z"/></g><defs><clipPath id="A"><path fill="#fff" d="M0 0h50v50H0z"/></clipPath></defs></svg>